<svg width="25" height="25" viewBox="0 0 25 25" fill="none" xmlns="http://www.w3.org/2000/svg">
<path d="M24.9995 17.752C25.0451 21.1612 22.152 23.9853 18.6894 23.974C15.2724 23.9628 12.3793 21.1387 12.4135 17.6958C12.4477 14.3317 15.2838 11.4963 18.7805 11.5301C22.1634 11.5526 25.0451 14.3542 24.9995 17.752ZM18.2794 15.9743C18.2794 16.5257 18.2908 17.077 18.2794 17.6395C18.268 17.8758 18.3591 18.0333 18.5414 18.1683C18.9514 18.4834 19.35 18.7984 19.7487 19.1135C20.0562 19.3497 20.3524 19.5973 20.6599 19.8335C20.9105 20.0248 21.2408 19.9461 21.3433 19.6648C21.4116 19.4735 21.3547 19.2935 21.1497 19.136C20.5346 18.6522 19.9196 18.1571 19.2931 17.6733C19.1678 17.572 19.1109 17.4708 19.1222 17.3132C19.1336 16.2894 19.1222 15.2768 19.1222 14.2529C19.1222 14.1404 19.1222 14.0391 19.0425 13.9491C18.9286 13.8028 18.7464 13.7466 18.5641 13.8028C18.3933 13.8591 18.2794 14.0054 18.2794 14.1966C18.2794 14.793 18.2794 15.3893 18.2794 15.9743Z" fill="#8A95B7"/>
<path d="M21.0472 11.395C21.1156 11.4288 21.1953 11.4625 21.2637 11.4963C21.2181 11.44 21.1498 11.4063 21.0472 11.395Z" fill="#8A95B7"/>
<path d="M11.0467 17.7632C11.0467 14.9729 12.7097 12.5539 15.1016 11.44C13.6095 11.4513 12.1174 11.4063 10.6139 11.4288C9.03068 11.4625 7.45885 11.44 5.87564 11.44C4.05323 11.44 2.21943 11.44 0.397022 11.44C0.0439299 11.44 0.0211498 11.4625 0.0211498 11.8C0.0439299 12.9927 -0.0244104 14.1966 0.00975972 15.3892C0.0553199 16.8744 -0.0244104 18.3596 0.00975972 19.8447C0.0439299 21.6449 1.42213 23.0063 3.24453 23.0401C4.2013 23.0626 5.15806 23.0288 6.11483 23.0288C7.15132 23.0288 8.19921 23.0626 9.2357 23.0513C10.4089 23.0288 11.5821 23.0401 12.7552 23.0288C13.0058 23.0288 13.245 23.0401 13.4956 23.0513C12.0035 21.7687 11.0467 19.8785 11.0467 17.7632Z" fill="#8A95B7"/>
<path d="M0.442756 9.39229C3.84838 9.39229 7.25401 9.39229 10.671 9.39229C13.1768 9.39229 15.694 9.39229 18.1999 9.39229C19.1338 9.39229 20.0792 9.38104 21.0132 9.39229C21.2524 9.39229 21.3435 9.31354 21.3321 9.08851C21.3207 8.84098 21.3321 8.5822 21.3321 8.33467C21.3207 6.8045 20.2956 5.5556 18.7807 5.20682C18.3138 5.0943 17.8468 5.12806 17.3684 5.15056C17.152 5.16181 17.0722 5.08305 17.0722 4.85802C17.0836 4.27296 17.0722 3.67664 17.0722 3.09157C17.0722 2.82154 17.0039 2.57401 16.8103 2.37149C16.4913 2.03395 16.0244 1.92144 15.5915 2.07896C15.1815 2.22522 14.8853 2.64152 14.8853 3.10282C14.874 3.68789 14.874 4.26171 14.8853 4.84677C14.8853 5.08305 14.8056 5.17306 14.5664 5.15056C13.94 5.08305 13.3249 5.13931 12.6985 5.15056C11.4683 5.15056 10.261 5.12806 9.05364 5.1168C8.33606 5.1168 7.61849 5.12806 6.90092 5.13931C6.47949 5.13931 6.47948 5.13931 6.47948 4.74551C6.47948 4.1942 6.49087 3.64289 6.47948 3.09157C6.4567 2.4615 5.95554 1.98895 5.34048 2.0002C4.72542 2.01145 4.29259 2.4615 4.29259 3.12533C4.29259 3.71039 4.2812 4.28421 4.29259 4.86928C4.29259 5.0718 4.22425 5.16181 4.00784 5.15056C3.70031 5.13931 3.38139 5.12806 3.07386 5.15056C1.84373 5.24057 0.943918 5.83689 0.363025 6.91701C0.0099334 7.58084 0.0213235 8.27842 0.0327135 8.9985C0.0327135 9.3923 0.0327135 9.39229 0.442756 9.39229Z" fill="#8A95B7"/>
</svg>
