<svg width="200" height="200" viewBox="0 0 200 200" fill="none" xmlns="http://www.w3.org/2000/svg">
<path d="M151.2 61.0239C144.976 57.6159 138.492 56.2479 131.416 57.1239C122.7 58.1999 115.816 59.4679 107.476 56.2199C100.464 53.4919 94.0602 49.4199 87.3722 46.0439C73.6922 39.1039 60.1122 36.9559 49.8562 50.6439C44.4002 57.9279 40.2562 66.2919 37.3962 75.1159C32.7722 89.3519 28.9722 105.116 31.0562 119.984C33.6922 138.832 49.8562 147.68 69.1922 140.852C77.0122 138.092 84.5602 134.052 92.9002 132.896C110.352 130.472 124.736 146.496 145.664 142.6C181.736 135.896 179.072 76.2839 151.2 61.0239Z" fill="#A1BBF0"/>
<path opacity="0.7" d="M151.2 61.0239C144.976 57.6159 138.492 56.2479 131.416 57.1239C122.7 58.1999 115.816 59.4679 107.476 56.2199C100.464 53.4919 94.0602 49.4199 87.3722 46.0439C73.6922 39.1039 60.1122 36.9559 49.8562 50.6439C44.4002 57.9279 40.2562 66.2919 37.3962 75.1159C32.7722 89.3519 28.9722 105.116 31.0562 119.984C33.6922 138.832 49.8562 147.68 69.1922 140.852C77.0122 138.092 84.5602 134.052 92.9002 132.896C110.352 130.472 124.736 146.496 145.664 142.6C181.736 135.896 179.072 76.2839 151.2 61.0239Z" fill="white"/>
<path d="M156.66 45.668C154.12 44.28 152.968 45.436 152.044 44.28C151.12 43.124 154.584 40.124 147.644 37.124C147.644 37.124 147.184 30.66 137.716 30.428C128.248 30.196 130.8 36.892 128.26 38.508C125.72 40.124 125.028 37.6 122.488 39.2C119.948 40.8 121.104 44.048 119.028 44.508C116.952 44.968 114.176 42.432 111.636 44.048C109.096 45.664 109.096 47.048 107.944 47.048C106.792 47.048 104.48 46.124 103.096 47.048C101.712 47.972 100.092 49.128 100.092 49.128H158.492C158.492 49.128 159.2 47.052 156.66 45.668Z" fill="#A1BBF0"/>
<path opacity="0.5" d="M156.66 45.668C154.12 44.28 152.968 45.436 152.044 44.28C151.12 43.124 154.584 40.124 147.644 37.124C147.644 37.124 147.184 30.66 137.716 30.428C128.248 30.196 130.8 36.892 128.26 38.508C125.72 40.124 125.028 37.6 122.488 39.2C119.948 40.8 121.104 44.048 119.028 44.508C116.952 44.968 114.176 42.432 111.636 44.048C109.096 45.664 109.096 47.048 107.944 47.048C106.792 47.048 104.48 46.124 103.096 47.048C101.712 47.972 100.092 49.128 100.092 49.128H158.492C158.492 49.128 159.2 47.052 156.66 45.668Z" fill="white"/>
<path d="M90.4319 97.56C88.6479 96.588 87.8359 97.396 87.1879 96.588C86.5399 95.78 88.9719 93.668 84.1079 91.56C84.1079 91.56 83.7839 87.02 77.1319 86.856C70.4799 86.692 72.2679 91.396 70.4839 92.532C68.6999 93.668 68.2159 91.884 66.4319 93.02C64.6479 94.156 65.4559 96.424 63.9999 96.748C62.5439 97.072 60.5919 95.288 58.7999 96.424C57.0079 97.56 57.0159 98.532 56.2079 98.532C55.3999 98.532 53.7719 97.884 52.7999 98.532C51.8279 99.18 50.6919 99.992 50.6919 99.992H91.7279C91.7279 99.992 92.2159 98.532 90.4319 97.56Z" fill="white"/>
<path opacity="0.5" d="M90.4319 97.56C88.6479 96.588 87.8359 97.396 87.1879 96.588C86.5399 95.78 88.9719 93.668 84.1079 91.56C84.1079 91.56 83.7839 87.02 77.1319 86.856C70.4799 86.692 72.2679 91.396 70.4839 92.532C68.6999 93.668 68.2159 91.884 66.4319 93.02C64.6479 94.156 65.4559 96.424 63.9999 96.748C62.5439 97.072 60.5919 95.288 58.7999 96.424C57.0079 97.56 57.0159 98.532 56.2079 98.532C55.3999 98.532 53.7719 97.884 52.7999 98.532C51.8279 99.18 50.6919 99.992 50.6919 99.992H91.7279C91.7279 99.992 92.2159 98.532 90.4319 97.56Z" fill="white"/>
<path d="M141.148 165.148H166.428C165.944 162.056 163.956 162.6 163.692 157.808C163.56 155.408 165.796 152.408 165.6 149.24C165.44 146.628 162.868 143.952 162.668 140.964C162.488 138.268 164.668 135.276 164.472 132.372C164.268 129.628 161.672 126.992 161.428 124.136C161.204 121.336 163.356 118.332 163.1 115.516C162.844 112.7 160.192 110.112 159.9 107.336C159.608 104.484 161.692 101.412 161.372 98.6841C161.036 95.7841 158.3 93.2801 157.928 90.6081C157.528 87.6361 159.452 84.4601 159 81.8921C158.444 78.7481 155.516 76.4721 154.9 74.1521C153.752 69.8281 153.896 65.6641 152.54 65.3921C151.096 65.1041 150.764 69.1881 149.668 73.7521C149.116 76.0441 146.256 78.3681 145.784 81.5161C145.404 84.0641 147.428 87.1641 147.096 90.1241C146.8 92.7761 144.132 95.3241 143.872 98.2081C143.628 100.92 145.792 103.908 145.58 106.744C145.372 109.5 142.78 112.128 142.608 114.928C142.436 117.728 144.66 120.656 144.508 123.42C144.352 126.252 141.812 128.928 141.68 131.652C141.544 134.536 143.82 137.444 143.708 140.116C143.584 143.08 141.08 145.792 140.988 148.384C140.876 151.528 143.184 154.428 143.112 156.824C142.96 162.024 140.58 160.94 140.496 165.124L141.148 165.148Z" fill="#A1BBF0"/>
<path d="M152 73.7V163.98" stroke="black" stroke-miterlimit="10"/>
<path d="M155.948 83.164L151.832 86.72L148.464 82.228" stroke="black" stroke-miterlimit="10"/>
<path d="M155.948 98.8801L151.832 102.432L148.464 97.9441" stroke="black" stroke-miterlimit="10"/>
<path d="M155.948 113.656L151.832 117.212L148.464 112.72" stroke="black" stroke-miterlimit="10"/>
<path d="M155.948 131.244L151.832 134.796L148.464 130.308" stroke="black" stroke-miterlimit="10"/>
<path d="M155.948 149.016L151.832 152.568L148.464 148.08" stroke="black" stroke-miterlimit="10"/>
<path d="M123.928 165.148H143.444C143.068 162.748 141.536 163.18 141.332 159.484C141.228 157.62 142.952 155.316 142.804 152.868C142.68 150.868 140.696 148.784 140.54 146.468C140.4 144.388 142.096 142.068 141.932 139.836C141.776 137.716 139.764 135.684 139.584 133.48C139.404 131.276 141.072 128.996 140.876 126.824C140.68 124.652 138.628 122.652 138.412 120.512C138.188 118.308 139.796 115.94 139.548 113.828C139.288 111.592 137.176 109.66 136.892 107.6C136.572 105.304 138.068 102.852 137.716 100.872C137.288 98.4441 135.028 96.6841 134.556 94.8961C133.668 91.5601 133.78 88.3401 132.732 88.1321C131.616 87.9081 131.36 91.0601 130.516 94.5881C130.092 96.3561 127.88 98.1521 127.516 100.588C127.224 102.556 128.784 104.948 128.528 107.232C128.3 109.28 126.244 111.232 126.04 113.472C125.852 115.564 127.524 117.872 127.36 120.06C127.2 122.188 125.204 124.216 125.064 126.376C124.924 128.536 126.664 130.8 126.532 132.932C126.4 135.064 124.452 137.184 124.352 139.288C124.244 141.512 126 143.756 125.916 145.82C125.82 148.108 123.888 150.22 123.816 152.22C123.728 154.644 125.512 156.888 125.456 158.732C125.336 162.732 123.5 161.912 123.436 165.132L123.928 165.148Z" fill="#A1BBF0"/>
<path d="M132.308 94.5601V164.248" stroke="black" stroke-miterlimit="10"/>
<path d="M135.352 101.864L132.176 104.608L129.576 101.14" stroke="black" stroke-miterlimit="10"/>
<path d="M135.352 113.992L132.176 116.736L129.576 113.272" stroke="black" stroke-miterlimit="10"/>
<path d="M135.352 125.4L132.176 128.144L129.576 124.68" stroke="black" stroke-miterlimit="10"/>
<path d="M135.352 138.976L132.176 141.72L129.576 138.252" stroke="black" stroke-miterlimit="10"/>
<path d="M135.352 152.696L132.176 155.436L129.576 151.972" stroke="black" stroke-miterlimit="10"/>
<path d="M106.532 164.96V84.0879H110.8V164.96" fill="#2E353A"/>
<path d="M106.532 164.96V84.0879H110.8V164.96" stroke="#2E353A" stroke-linecap="round" stroke-linejoin="round"/>
<path d="M104.4 164.96V84.0879H108.668V164.96" fill="#A1BBF0"/>
<path d="M104.4 164.96V84.0879H108.668V164.96" stroke="#2E353A" stroke-linecap="round" stroke-linejoin="round"/>
<g style="mix-blend-mode:multiply" opacity="0.3">
<path d="M108.668 84.0879H104.4V93.6879H108.668V84.0879Z" fill="#2E353A"/>
</g>
<path d="M122.612 52.5161H90.9883L104.772 86.3721H136.4V66.3001C136.4 64.4896 136.044 62.6969 135.351 61.0243C134.658 59.3517 133.642 57.832 132.362 56.5519C131.081 55.2719 129.561 54.2567 127.888 53.5642C126.216 52.8717 124.423 52.5156 122.612 52.5161Z" fill="#A1BBF0" stroke="#2E353A" stroke-linecap="round" stroke-linejoin="round"/>
<g style="mix-blend-mode:multiply" opacity="0.3">
<path d="M102.36 80.4438L104.76 86.3718H136.4V66.2998C136.4 65.9958 136.4 65.6918 136.368 65.3918H102.368L102.36 80.4438Z" fill="black"/>
</g>
<path d="M122.38 65.3918H119.052" stroke="#2E353A" stroke-linecap="round" stroke-linejoin="round"/>
<path d="M136.368 65.3918H126.296" stroke="#2E353A" stroke-linecap="round" stroke-linejoin="round"/>
<path d="M90.9882 52.5161C94.645 52.5161 98.152 53.9688 100.738 56.5545C103.324 59.1403 104.776 62.6473 104.776 66.3041V86.3761H77.2002V66.3001C77.2013 62.644 78.6544 59.138 81.24 56.5531C83.8257 53.9682 87.3321 52.5161 90.9882 52.5161Z" fill="#2E353A" stroke="#2E353A" stroke-linecap="round" stroke-linejoin="round"/>
<path d="M104.772 84.0879H81.0122V86.3719H104.772V84.0879Z" fill="#A1BBF0" stroke="#2E353A" stroke-linecap="round" stroke-linejoin="round"/>
<path d="M104.772 84.0879H55.6001V86.3719H104.772V84.0879Z" fill="#A1BBF0" stroke="#2E353A" stroke-linecap="round" stroke-linejoin="round"/>
<path opacity="0.3" d="M104.772 84.0879H81.0122V86.3719H104.772V84.0879Z" fill="black"/>
<path d="M124.668 44.356H114.8V51.288H124.668V44.356Z" fill="#2E353A" stroke="#2E353A" stroke-linecap="round" stroke-linejoin="round"/>
<path d="M115.6 44.356H113.468V65.956H115.6V44.356Z" fill="white" stroke="#2E353A" stroke-linecap="round" stroke-linejoin="round"/>
<path d="M114.532 68.8879C115.858 68.8879 116.932 67.8134 116.932 66.4879C116.932 65.1624 115.858 64.0879 114.532 64.0879C113.207 64.0879 112.132 65.1624 112.132 66.4879C112.132 67.8134 113.207 68.8879 114.532 68.8879Z" fill="#2E353A" stroke="#2E353A" stroke-linecap="round" stroke-linejoin="round"/>
<path d="M169.332 138.224H176" stroke="#2E353A" stroke-linecap="round" stroke-linejoin="round"/>
<path d="M169.332 148.088H176" stroke="#2E353A" stroke-linecap="round" stroke-linejoin="round"/>
<path d="M28.9321 147.824H168.532V138.488H28.9321" fill="white"/>
<path d="M28.9321 147.824H168.532V138.488H28.9321" stroke="#2E353A" stroke-linecap="round" stroke-linejoin="round"/>
<path d="M38.6362 165.024V118.056C38.6363 117.941 38.6597 117.827 38.7051 117.721C38.7505 117.615 38.8169 117.52 38.9002 117.44L42.5482 114.004C42.7125 113.85 42.9309 113.768 43.1556 113.775C43.3804 113.782 43.5935 113.877 43.7482 114.04L46.9482 117.444C47.0934 117.602 47.1746 117.809 47.1762 118.024V165.024" fill="#2E353A"/>
<path d="M38.6362 165.024V118.056C38.6363 117.941 38.6597 117.827 38.7051 117.721C38.7505 117.615 38.8169 117.52 38.9002 117.44L42.5482 114.004C42.7125 113.85 42.9309 113.768 43.1556 113.775C43.3804 113.782 43.5935 113.877 43.7482 114.04L46.9482 117.444C47.0934 117.602 47.1746 117.809 47.1762 118.024V165.024" stroke="#2E353A" stroke-linecap="round" stroke-linejoin="round"/>
<path d="M37.6001 165.424V118.056C37.6 117.94 37.6237 117.826 37.6698 117.72C37.716 117.614 37.7834 117.519 37.8681 117.44L41.5161 114.004C41.5972 113.927 41.6926 113.868 41.7968 113.828C41.9011 113.788 42.0121 113.77 42.1236 113.773C42.235 113.776 42.3447 113.802 42.4464 113.848C42.5481 113.893 42.6397 113.959 42.7161 114.04L45.9161 117.444C46.063 117.601 46.1445 117.809 46.1441 118.024V165.424" fill="white"/>
<path d="M37.6001 165.424V118.056C37.6 117.94 37.6237 117.826 37.6698 117.72C37.716 117.614 37.7834 117.519 37.8681 117.44L41.5161 114.004C41.5972 113.927 41.6926 113.868 41.7968 113.828C41.9011 113.788 42.0121 113.77 42.1236 113.773C42.235 113.776 42.3447 113.802 42.4464 113.848C42.5481 113.893 42.6397 113.959 42.7161 114.04L45.9161 117.444C46.063 117.601 46.1445 117.809 46.1441 118.024V165.424" stroke="#2E353A" stroke-linecap="round" stroke-linejoin="round"/>
<path d="M69.396 165.024V118.056C69.3961 117.941 69.4195 117.827 69.4649 117.721C69.5103 117.615 69.5766 117.519 69.66 117.44L73.312 114.004C73.3931 113.927 73.4885 113.868 73.5927 113.828C73.697 113.788 73.808 113.77 73.9195 113.773C74.0309 113.776 74.1406 113.802 74.2423 113.848C74.344 113.893 74.4356 113.959 74.512 114.04L77.712 117.444C77.8589 117.601 77.9404 117.809 77.94 118.024V165.024" fill="#2E353A"/>
<path d="M69.396 165.024V118.056C69.3961 117.941 69.4195 117.827 69.4649 117.721C69.5103 117.615 69.5766 117.519 69.66 117.44L73.312 114.004C73.3931 113.927 73.4885 113.868 73.5927 113.828C73.697 113.788 73.808 113.77 73.9195 113.773C74.0309 113.776 74.1406 113.802 74.2423 113.848C74.344 113.893 74.4356 113.959 74.512 114.04L77.712 117.444C77.8589 117.601 77.9404 117.809 77.94 118.024V165.024" stroke="#2E353A" stroke-linecap="round" stroke-linejoin="round"/>
<path d="M68.5322 165.424V118.056C68.5321 117.94 68.5559 117.826 68.602 117.72C68.6481 117.614 68.7156 117.519 68.8002 117.44L72.4482 114.004C72.6125 113.85 72.8309 113.768 73.0556 113.775C73.2804 113.782 73.4934 113.877 73.6482 114.04L76.8482 117.444C76.9962 117.601 77.0791 117.808 77.0802 118.024V165.424" fill="white"/>
<path d="M68.5322 165.424V118.056C68.5321 117.94 68.5559 117.826 68.602 117.72C68.6481 117.614 68.7156 117.519 68.8002 117.44L72.4482 114.004C72.6125 113.85 72.8309 113.768 73.0556 113.775C73.2804 113.782 73.4934 113.877 73.6482 114.04L76.8482 117.444C76.9962 117.601 77.0791 117.808 77.0802 118.024V165.424" stroke="#2E353A" stroke-linecap="round" stroke-linejoin="round"/>
<path d="M100.328 165.024V118.056C100.328 117.94 100.352 117.826 100.398 117.72C100.444 117.614 100.511 117.519 100.596 117.44L104.244 114.004C104.408 113.85 104.627 113.768 104.852 113.775C105.076 113.782 105.289 113.877 105.444 114.04L108.644 117.444C108.792 117.601 108.875 117.808 108.876 118.024V165.424" fill="#2E353A"/>
<path d="M100.328 165.024V118.056C100.328 117.94 100.352 117.826 100.398 117.72C100.444 117.614 100.511 117.519 100.596 117.44L104.244 114.004C104.408 113.85 104.627 113.768 104.852 113.775C105.076 113.782 105.289 113.877 105.444 114.04L108.644 117.444C108.792 117.601 108.875 117.808 108.876 118.024V165.424" stroke="#2E353A" stroke-linecap="round" stroke-linejoin="round"/>
<path d="M99.4683 165.424V118.056C99.4683 117.941 99.4918 117.827 99.5372 117.721C99.5825 117.615 99.6489 117.519 99.7323 117.44L103.384 114.004C103.465 113.927 103.561 113.868 103.665 113.828C103.769 113.788 103.88 113.77 103.992 113.773C104.103 113.776 104.213 113.802 104.315 113.848C104.416 113.893 104.508 113.959 104.584 114.04L107.784 117.444C107.931 117.601 108.013 117.809 108.012 118.024V165.424" fill="white"/>
<path d="M99.4683 165.424V118.056C99.4683 117.941 99.4918 117.827 99.5372 117.721C99.5825 117.615 99.6489 117.519 99.7323 117.44L103.384 114.004C103.465 113.927 103.561 113.868 103.665 113.828C103.769 113.788 103.88 113.77 103.992 113.773C104.103 113.776 104.213 113.802 104.315 113.848C104.416 113.893 104.508 113.959 104.584 114.04L107.784 117.444C107.931 117.601 108.013 117.809 108.012 118.024V165.424" stroke="#2E353A" stroke-linecap="round" stroke-linejoin="round"/>
<path d="M131.264 165.024V118.056C131.264 117.941 131.288 117.827 131.333 117.721C131.378 117.615 131.445 117.52 131.528 117.44L135.176 114.004C135.34 113.85 135.559 113.768 135.784 113.775C136.008 113.782 136.221 113.877 136.376 114.04L139.576 117.444C139.721 117.602 139.803 117.809 139.804 118.024V165.024" fill="#2E353A"/>
<path d="M131.264 165.024V118.056C131.264 117.941 131.288 117.827 131.333 117.721C131.378 117.615 131.445 117.52 131.528 117.44L135.176 114.004C135.34 113.85 135.559 113.768 135.784 113.775C136.008 113.782 136.221 113.877 136.376 114.04L139.576 117.444C139.721 117.602 139.803 117.809 139.804 118.024V165.024" stroke="#2E353A" stroke-linecap="round" stroke-linejoin="round"/>
<path d="M130.4 165.424V118.056C130.4 117.94 130.424 117.826 130.47 117.72C130.516 117.614 130.584 117.519 130.668 117.44L134.316 114.004C134.397 113.927 134.493 113.868 134.597 113.828C134.701 113.788 134.812 113.77 134.924 113.773C135.035 113.776 135.145 113.802 135.246 113.848C135.348 113.893 135.44 113.959 135.516 114.04L138.716 117.444C138.863 117.601 138.945 117.809 138.944 118.024V165.424" fill="white"/>
<path d="M130.4 165.424V118.056C130.4 117.94 130.424 117.826 130.47 117.72C130.516 117.614 130.584 117.519 130.668 117.44L134.316 114.004C134.397 113.927 134.493 113.868 134.597 113.828C134.701 113.788 134.812 113.77 134.924 113.773C135.035 113.776 135.145 113.802 135.246 113.848C135.348 113.893 135.44 113.959 135.516 114.04L138.716 117.444C138.863 117.601 138.945 117.809 138.944 118.024V165.424" stroke="#2E353A" stroke-linecap="round" stroke-linejoin="round"/>
<path d="M162.196 165.024V118.056C162.196 117.941 162.22 117.827 162.265 117.721C162.31 117.615 162.377 117.519 162.46 117.44L166.112 114.004C166.193 113.927 166.289 113.868 166.393 113.828C166.497 113.788 166.608 113.77 166.72 113.773C166.831 113.776 166.941 113.802 167.042 113.848C167.144 113.893 167.236 113.959 167.312 114.04L170.512 117.444C170.659 117.601 170.74 117.809 170.74 118.024V165.024" fill="#2E353A"/>
<path d="M162.196 165.024V118.056C162.196 117.941 162.22 117.827 162.265 117.721C162.31 117.615 162.377 117.519 162.46 117.44L166.112 114.004C166.193 113.927 166.289 113.868 166.393 113.828C166.497 113.788 166.608 113.77 166.72 113.773C166.831 113.776 166.941 113.802 167.042 113.848C167.144 113.893 167.236 113.959 167.312 114.04L170.512 117.444C170.659 117.601 170.74 117.809 170.74 118.024V165.024" stroke="#2E353A" stroke-linecap="round" stroke-linejoin="round"/>
<path d="M161.332 165.424V118.056C161.332 117.94 161.356 117.826 161.402 117.72C161.448 117.614 161.515 117.519 161.6 117.44L165.248 114.004C165.412 113.85 165.631 113.768 165.855 113.775C166.08 113.782 166.293 113.877 166.448 114.04L169.648 117.444C169.796 117.601 169.879 117.808 169.88 118.024V165.424" fill="white"/>
<path d="M161.332 165.424V118.056C161.332 117.94 161.356 117.826 161.402 117.72C161.448 117.614 161.515 117.519 161.6 117.44L165.248 114.004C165.412 113.85 165.631 113.768 165.855 113.775C166.08 113.782 166.293 113.877 166.448 114.04L169.648 117.444C169.796 117.601 169.879 117.808 169.88 118.024V165.424" stroke="#2E353A" stroke-linecap="round" stroke-linejoin="round"/>
<path d="M42.7119 114.04V117.464" stroke="#2E353A" stroke-linecap="round" stroke-linejoin="round"/>
<path d="M44.084 115.808V123.912" stroke="#2E353A" stroke-linecap="round" stroke-linejoin="round"/>
<path d="M70.2163 116.472V126.724" stroke="#2E353A" stroke-linecap="round" stroke-linejoin="round"/>
<path d="M71.54 115.148V119.612" stroke="#2E353A" stroke-linecap="round" stroke-linejoin="round"/>
<path d="M103.384 114.004V124.08" stroke="#2E353A" stroke-linecap="round" stroke-linejoin="round"/>
<path d="M105.284 114.816V129.704" stroke="#2E353A" stroke-linecap="round" stroke-linejoin="round"/>
<path d="M131.912 116.472V127.716" stroke="#2E353A" stroke-linecap="round" stroke-linejoin="round"/>
<path d="M136.212 115.148V117.96" stroke="#2E353A" stroke-linecap="round" stroke-linejoin="round"/>
<path d="M164.164 114.98V120.936" stroke="#2E353A" stroke-linecap="round" stroke-linejoin="round"/>
<path d="M167.804 115.644V132.844" stroke="#2E353A" stroke-linecap="round" stroke-linejoin="round"/>
<path d="M161.188 140.784H157.548" stroke="#2E353A" stroke-linecap="round" stroke-linejoin="round"/>
<path d="M161.188 143.596H148.452" stroke="#2E353A" stroke-linecap="round" stroke-linejoin="round"/>
<path d="M113.716 143.596H107.928" stroke="#2E353A" stroke-linecap="round" stroke-linejoin="round"/>
<path d="M83.2841 143.596H77.4961" stroke="#2E353A" stroke-linecap="round" stroke-linejoin="round"/>
<path d="M37.4682 142.108H31.6802" stroke="#2E353A" stroke-linecap="round" stroke-linejoin="round"/>
<path d="M37.4683 144.752H35.1523" stroke="#2E353A" stroke-linecap="round" stroke-linejoin="round"/>
<path d="M110.74 142.108H107.928" stroke="#2E353A" stroke-linecap="round" stroke-linejoin="round"/>
<path d="M79.9761 145.248H77.1641" stroke="#2E353A" stroke-linecap="round" stroke-linejoin="round"/>
<path d="M68.2319 145.248H65.4199" stroke="#2E353A" stroke-linecap="round" stroke-linejoin="round"/>
<path d="M172.432 143.596H169.952" stroke="#2E353A" stroke-linecap="round" stroke-linejoin="round"/>
<path d="M175.74 143.596H174.252" stroke="#2E353A" stroke-linecap="round" stroke-linejoin="round"/>
<path d="M46.0003 126.4C46.0003 126.4 45.0003 134.996 43.8003 143.792C42.6003 152.588 44.8003 161.588 45.4003 162.388" stroke="#2E353A" stroke-linecap="round" stroke-linejoin="round"/>
<path d="M42.0439 143.8C42.2359 142.084 42.3959 141 42.3959 141" stroke="#2E353A" stroke-linecap="round" stroke-linejoin="round"/>
<path d="M44.996 161.388C44.996 161.388 41.396 160.588 41.396 154.188C41.396 151.56 41.564 148.868 41.764 146.588" stroke="#2E353A" stroke-linecap="round" stroke-linejoin="round"/>
<path d="M75.1999 116.2C75.1999 116.2 75.9999 116.8 74.5999 123.6C73.1999 130.4 73.3999 140.4 75.1999 146" stroke="#2E353A" stroke-linecap="round" stroke-linejoin="round"/>
<path d="M77.1999 128.8C77.1999 128.8 75.1999 134.8 76.5999 143.2" stroke="#2E353A" stroke-linecap="round" stroke-linejoin="round"/>
<path d="M100 132.596C100 132.596 101 138.396 102 144.392C103 150.388 102.2 158.792 101.4 160.988C100.6 163.184 99.8003 164.988 99.8003 164.988" stroke="#2E353A" stroke-linecap="round" stroke-linejoin="round"/>
<path d="M103.768 162.048C102.876 164.784 101.768 161.588 101.768 161.588" stroke="#2E353A" stroke-linecap="round" stroke-linejoin="round"/>
<path d="M103.732 141.6C103.732 141.6 105.616 151.324 104.552 158.644" stroke="#2E353A" stroke-linecap="round" stroke-linejoin="round"/>
<path d="M99.6001 144.8C99.6001 144.8 101.6 149 99.8001 153" stroke="#2E353A" stroke-linecap="round" stroke-linejoin="round"/>
<path d="M136.92 145.392C137.188 146.615 137.539 147.818 137.972 148.992" stroke="#2E353A" stroke-linecap="round" stroke-linejoin="round"/>
<path d="M138.572 124.6C137.303 128.629 136.498 132.789 136.172 137C136.053 139.131 136.172 141.268 136.528 143.372" stroke="#2E353A" stroke-linecap="round" stroke-linejoin="round"/>
<path d="M134.772 142.992C134.772 142.992 136.572 149.792 137.572 152.192C138.572 154.592 138.172 160.388 136.972 163.188" stroke="#2E353A" stroke-linecap="round" stroke-linejoin="round"/>
<path d="M161.764 127.6C161.764 127.6 165.764 134.8 161.964 146.596" stroke="#2E353A" stroke-linecap="round" stroke-linejoin="round"/>
<path d="M165.44 139.896C165.464 142.144 165.264 144.992 164.364 147.392C162.564 152.192 161.764 153.792 161.764 153.792" stroke="#2E353A" stroke-linecap="round" stroke-linejoin="round"/>
<path d="M165.164 136C165.164 136 165.296 136.86 165.376 138.184" stroke="#2E353A" stroke-linecap="round" stroke-linejoin="round"/>
</svg>
