<svg width="130" height="130" viewBox="0 0 130 130" fill="none" xmlns="http://www.w3.org/2000/svg">
<g clip-path="url(#clip0)">
<path d="M26.0001 2.16669H104C106.393 2.16669 108.333 4.10679 108.333 6.50002V15.1667H21.6667V6.50002C21.6667 4.10679 23.6068 2.16669 26.0001 2.16669Z" fill="#7FACFA"/>
<path d="M26.0001 2.16669H97.5001C99.8933 2.16669 101.833 4.10679 101.833 6.50002V15.1667H21.6667V6.50002C21.6667 4.10679 23.6068 2.16669 26.0001 2.16669Z" fill="#A4C2F7"/>
<path d="M21.6666 13H108.333C110.726 13 112.667 14.9401 112.667 17.3333V26H17.3333V17.3333C17.3333 14.9401 19.2734 13 21.6666 13Z" fill="#7FACFA"/>
<path d="M21.6666 13H101.833C104.226 13 106.167 14.9401 106.167 17.3333V26H17.3333V17.3333C17.3333 14.9401 19.2734 13 21.6666 13Z" fill="#A4C2F7"/>
<path d="M127.833 108.333V69.3333C127.833 66.9401 125.893 65 123.5 65H6.50008C4.10685 65 2.16675 66.9401 2.16675 69.3333V108.333H127.833Z" fill="#A4C2F7"/>
<path d="M121.333 108.333V69.3333C121.394 67.0024 119.555 65.0631 117.224 65H6.27582C3.94508 65.0632 2.1061 67.0025 2.16674 69.3333V108.333H121.333Z" fill="#E8EDFC"/>
<path d="M119.167 28.1667V106.167H10.8333V28.1667C10.8846 25.7271 12.9002 23.789 15.3399 23.8333H114.66C117.1 23.789 119.115 25.7271 119.167 28.1667Z" fill="#CAD9FC"/>
<path d="M112.667 28.1667V106.167H10.8333V28.1667C10.8846 25.7271 12.9002 23.789 15.3399 23.8333H108.16C110.6 23.789 112.615 25.7271 112.667 28.1667Z" fill="#E8EDFC"/>
<path d="M127.833 88.8333V119.167C127.834 121.465 126.921 123.67 125.296 125.296C123.67 126.921 121.465 127.834 119.167 127.833H10.8334C8.53468 127.834 6.32991 126.921 4.70446 125.296C3.07901 123.67 2.16612 121.465 2.16675 119.167L2.16675 88.8333H37.8301C38.5613 88.8347 39.2438 89.2003 39.6501 89.8083L47.0168 100.858C47.423 101.466 48.1055 101.832 48.8368 101.833H81.1634C81.8947 101.832 82.5772 101.466 82.9834 100.858L90.3501 89.8083C90.7563 89.2003 91.4388 88.8347 92.1701 88.8333H127.833Z" fill="#CAD9FC"/>
<path d="M121.333 88.8333V119.167C121.334 121.465 120.421 123.67 118.796 125.296C117.17 126.921 114.965 127.834 112.667 127.833H10.8334C8.53468 127.834 6.32991 126.921 4.70446 125.296C3.07901 123.67 2.16612 121.465 2.16675 119.167L2.16675 88.8333H36.6601C37.3913 88.8347 38.0738 89.2003 38.4801 89.8083L45.8467 100.858C46.253 101.466 46.9355 101.832 47.6667 101.833H81.1634C81.8947 101.832 82.5772 101.466 82.9834 100.858L90.3501 89.8083C90.7563 89.2003 91.4388 88.8347 92.1701 88.8333H121.333Z" fill="#E8EDFC"/>
<path d="M17.3334 127.833C15.0347 127.834 12.8299 126.921 11.2045 125.296C9.579 123.67 8.66611 121.465 8.66674 119.167V93.1667C8.6061 90.8359 10.4451 88.8965 12.7758 88.8334H17.3334V28.1667C17.3847 25.7271 19.4003 23.789 21.8401 23.8334H23.8334V17.3334C23.8334 14.9401 25.7735 13 28.1667 13V6.50002C28.1667 4.10679 30.1068 2.16669 32.5001 2.16669H26.0001C23.6068 2.16669 21.6667 4.10679 21.6667 6.50002V13C19.2735 13 17.3334 14.9401 17.3334 17.3334V23.8334H15.3401C12.9003 23.789 10.8847 25.7271 10.8334 28.1667V65H6.27582C3.94508 65.0632 2.1061 67.0025 2.16674 69.3334V119.167C2.16611 121.465 3.079 123.67 4.70445 125.296C6.3299 126.921 8.53467 127.834 10.8334 127.833H17.3334Z" fill="white"/>
<path d="M10.8333 125.667H38.9999H119.167V130H38.9999H10.8333V125.667Z" fill="white"/>
<path d="M21.6666 127.833C21.6631 126.638 20.6951 125.67 19.4999 125.667H10.8333V130H19.4999C20.6951 129.997 21.6631 129.029 21.6666 127.833Z" fill="#142B6F"/>
<path d="M119.167 130V125.667H36.8334C35.6368 125.667 34.6667 126.637 34.6667 127.833C34.6667 129.03 35.6368 130 36.8334 130H119.167Z" fill="#142B6F"/>
<path d="M28.1667 125.667C27.5931 125.675 27.0439 125.9 26.6283 126.295L26.3683 126.62C26.2864 126.741 26.2208 126.872 26.1733 127.01C26.1107 127.133 26.0669 127.264 26.0433 127.4C26.019 127.543 26.0045 127.688 26 127.833C26.008 128.407 26.2324 128.956 26.6283 129.372C27.1348 129.898 27.8748 130.128 28.5904 129.983C29.306 129.839 29.898 129.338 30.16 128.657C30.271 128.396 30.3299 128.116 30.3333 127.833C30.3392 127.257 30.1128 126.702 29.7052 126.295C29.2976 125.887 28.7431 125.661 28.1667 125.667Z" fill="#142B6F"/>
<path d="M119.167 130C117.97 130 117 129.03 117 127.833C117 126.637 117.97 125.667 119.167 125.667C122.755 125.663 125.663 122.755 125.667 119.167V91H92.1596L84.7793 102.07C83.9768 103.277 82.623 104.002 81.1737 104H48.8254C47.3761 104.002 46.0224 103.277 45.2199 102.07L37.8404 91H4.33333V119.167C4.33727 122.755 7.24512 125.663 10.8333 125.667C12.03 125.667 13 126.637 13 127.833C13 129.03 12.03 130 10.8333 130C4.85317 129.993 0.00704414 125.147 0 119.167V88.8333C0 87.6367 0.97005 86.6666 2.16667 86.6666H37.8404C39.2897 86.6649 40.6435 87.3894 41.446 88.5963L48.8263 99.6666H81.1746L88.5549 88.5963C89.3572 87.3897 90.7106 86.6652 92.1596 86.6666H127.833C129.03 86.6666 130 87.6367 130 88.8333V119.167C129.993 125.147 125.147 129.993 119.167 130Z" fill="#142B6F"/>
<path d="M2.16667 91C0.97005 91 0 90.0299 0 88.8333V69.3333C0.00394054 65.7451 2.91178 62.8373 6.5 62.8333H10.8333C12.03 62.8333 13 63.8034 13 65C13 66.1966 12.03 67.1666 10.8333 67.1666H6.5C5.30383 67.1677 4.33441 68.1371 4.33333 69.3333V88.8333C4.33333 90.0299 3.36328 91 2.16667 91Z" fill="#142B6F"/>
<path d="M127.833 91C126.637 91 125.667 90.0299 125.667 88.8333V69.3333C125.666 68.1371 124.696 67.1677 123.5 67.1666H119.167C117.97 67.1666 117 66.1966 117 65C117 63.8034 117.97 62.8333 119.167 62.8333H123.5C127.088 62.8373 129.996 65.7451 130 69.3333V88.8333C130 89.4079 129.772 89.9591 129.365 90.3654C128.959 90.7717 128.408 91 127.833 91Z" fill="#142B6F"/>
<path d="M119.167 91C117.97 91 117 90.03 117 88.8333V28.1667C116.947 26.9214 115.898 25.953 114.653 26H15.3477C14.1022 25.953 13.0529 26.9214 13.0001 28.1667V88.8333C13.0001 90.03 12.03 91 10.8334 91C9.6368 91 8.66675 90.03 8.66675 88.8333V28.1667C8.72141 24.5289 11.7098 21.6215 15.3477 21.6667H114.653C118.29 21.6215 121.279 24.5289 121.333 28.1667V88.8333C121.333 89.408 121.105 89.9591 120.699 90.3654C120.293 90.7717 119.741 91 119.167 91Z" fill="#142B6F"/>
<path d="M112.667 26H17.3334C16.1368 26 15.1667 25.03 15.1667 23.8334V17.3334C15.1707 13.7452 18.0785 10.8373 21.6667 10.8334H108.333C111.922 10.8373 114.829 13.7452 114.833 17.3334V23.8334C114.833 25.03 113.863 26 112.667 26ZM19.5001 21.6667H110.5V17.3334C110.499 16.1372 109.53 15.1678 108.333 15.1667H21.6667C20.4706 15.1678 19.5012 16.1372 19.5001 17.3334V21.6667Z" fill="#142B6F"/>
<path d="M108.333 15.1667H21.6667C20.47 15.1667 19.5 14.1966 19.5 13V6.5C19.5039 2.91178 22.4118 0.00394054 26 0H104C107.588 0.00394054 110.496 2.91178 110.5 6.5V13C110.5 14.1966 109.53 15.1667 108.333 15.1667ZM23.8333 10.8333H106.167V6.5C106.166 5.30383 105.196 4.33441 104 4.33333H26C24.8038 4.33441 23.8344 5.30383 23.8333 6.5V10.8333Z" fill="#142B6F"/>
<path d="M52.0001 43.3333H23.8334C22.6368 43.3333 21.6667 42.3633 21.6667 41.1667C21.6667 39.9701 22.6368 39 23.8334 39H52.0001C53.1967 39 54.1667 39.9701 54.1667 41.1667C54.1667 42.3633 53.1967 43.3333 52.0001 43.3333Z" fill="#142B6F"/>
<path d="M75.8334 54.1666H23.8334C22.6368 54.1666 21.6667 53.1966 21.6667 52C21.6667 50.8034 22.6368 49.8333 23.8334 49.8333H75.8334C77.03 49.8333 78.0001 50.8034 78.0001 52C78.0001 53.1966 77.03 54.1666 75.8334 54.1666Z" fill="#142B6F"/>
<path d="M52.0001 65H23.8334C22.6368 65 21.6667 64.0299 21.6667 62.8333C21.6667 61.6367 22.6368 60.6666 23.8334 60.6666H52.0001C53.1967 60.6666 54.1667 61.6367 54.1667 62.8333C54.1667 64.0299 53.1967 65 52.0001 65Z" fill="#142B6F"/>
</g>
<defs>
<clipPath id="clip0">
<rect width="130" height="130" fill="white"/>
</clipPath>
</defs>
</svg>
