<svg width="25" height="25" viewBox="0 0 25 25" fill="none" xmlns="http://www.w3.org/2000/svg">
<path d="M0.013567 14.852C0.013567 12.6489 0.0267802 10.4459 0.000353849 8.25571C-0.0128593 7.40541 0.343897 6.79989 1.08383 6.37474C2.72227 5.42137 4.3607 4.45512 5.99914 3.50175C7.80935 2.44532 9.61955 1.38888 11.4298 0.319563C12.1168 -0.0798208 12.8039 -0.118471 13.491 0.280913C15.2352 1.2987 16.9793 2.31648 18.7234 3.33427C20.4147 4.3134 22.0928 5.30542 23.7973 6.28456C24.5901 6.73548 25.0129 7.35388 24.9997 8.29436C24.9733 12.7134 24.9865 17.1452 24.9865 21.5642C24.9865 22.8912 24.0616 23.9863 22.727 24.2311C22.542 24.2697 22.3571 24.2697 22.1721 24.2697C20.6658 24.2697 19.1595 24.2697 17.6532 24.2697C16.464 24.2697 15.7108 23.5354 15.7108 22.3759C15.7108 20.8428 15.7108 19.3096 15.7108 17.7765C15.7108 16.9391 15.3673 16.6041 14.5084 16.6041C13.1607 16.6041 11.7997 16.6041 10.452 16.6041C9.65919 16.6041 9.30243 16.952 9.30243 17.725C9.30243 19.271 9.30243 20.817 9.30243 22.363C9.30243 23.5354 8.54928 24.2697 7.34688 24.2697C5.84058 24.2697 4.33428 24.2697 2.82798 24.2697C1.20275 24.2697 0.0267802 23.1102 0.0267802 21.5256C0.000353848 19.2968 0.013567 17.0808 0.013567 14.852Z" fill="#142B6F"/>
</svg>
