<svg width="60" height="60" viewBox="0 0 60 60" fill="none" xmlns="http://www.w3.org/2000/svg">
<path d="M0.775635 27.413C1.02474 25.6265 1.07718 23.8137 1.49673 22.0666C4.14511 11.1635 10.8054 3.92545 21.5956 1.02234C31.1009 -1.52609 39.7147 0.733342 47.0961 7.31459C51.6849 11.4 54.4644 16.5362 55.6837 22.5526C56.1295 24.7726 56.2081 27.0058 56.1295 29.2652C56.1295 29.4097 56.1688 29.5936 55.9984 29.6724C55.8279 29.7644 55.7099 29.6199 55.605 29.528C54.7397 28.7923 53.8482 28.0961 52.8518 27.5312C52.5633 27.3605 52.5371 27.0846 52.524 26.7956C52.3929 23.0387 51.462 19.4919 49.6134 16.2341C45.8113 9.54775 40.1474 5.38357 32.5431 4.04367C27.207 3.09786 22.0545 3.88604 17.3084 6.50015C10.4383 10.2834 6.17729 16.0502 4.86621 23.8268C3.69935 30.7496 5.32508 37.0813 9.65165 42.5985C13.5587 47.5903 18.7112 50.6247 25.0306 51.5574C25.542 51.6362 26.0664 51.7676 26.5777 51.7545C27.2201 51.7413 27.561 52.0434 27.8363 52.582C28.2428 53.3833 28.7934 54.0927 29.331 54.8021C29.449 54.9466 29.6587 55.0911 29.5407 55.3144C29.449 55.4983 29.2261 55.4195 29.0556 55.4195C21.7923 55.4983 15.4335 53.1469 10.0188 48.2733C5.52175 44.2274 2.71603 39.2094 1.4574 33.3112C1.1034 31.6297 1.02474 29.922 0.775635 28.2406C0.775635 27.9647 0.775635 27.6889 0.775635 27.413Z" fill="#142B6F"/>
<path d="M43.3071 59.1892C41.0389 58.7952 38.7445 58.4405 36.6861 57.3502C31.8876 54.8149 28.9508 50.9134 28.2034 45.5144C27.2201 38.434 30.9043 31.8265 37.4466 29.0153C44.8542 25.8232 53.4155 28.7 57.4012 36.0432C58.6336 38.3158 59.2498 40.7722 59.2236 43.3338C59.1843 49.9807 55.251 55.5636 49.2725 57.9282C47.6861 58.5587 46.0079 58.7689 44.356 59.163C44.0151 59.163 43.6611 59.1761 43.3071 59.1892ZM43.6218 31.1565C37.0401 31.2616 31.5074 36.2928 31.468 43.3338C31.4418 50.1121 36.7517 55.5374 43.6349 55.5242C50.4656 55.5111 55.7624 50.1121 55.7493 43.3469C55.7624 36.4636 50.3345 31.2616 43.6218 31.1565Z" fill="#142B6F"/>
<path d="M30.3536 18.3224C30.3536 21.173 30.3536 24.0236 30.3536 26.8873C30.3536 28.3848 29.1474 29.5933 27.6527 29.5933C22.8673 29.5933 18.0819 29.5933 13.2964 29.5933C12.4573 29.5933 11.8018 29.3175 11.4347 28.5424C10.8578 27.347 11.7231 26.0203 13.126 25.994C14.8042 25.9677 16.4823 25.9809 18.1605 25.9809C20.7565 25.9809 23.3393 25.9546 25.9352 25.994C26.5908 26.0071 26.7874 25.8232 26.7874 25.1533C26.7612 19.8331 26.7743 14.4998 26.7743 9.17962C26.7743 8.90376 26.7612 8.60162 26.8268 8.3389C27.0103 7.56386 27.7052 7.01214 28.4787 6.98587C29.2523 6.9596 29.9734 7.45877 30.2356 8.20754C30.3667 8.56222 30.3667 8.93003 30.3667 9.31098C30.3536 12.2929 30.3536 15.3142 30.3536 18.3224Z" fill="#142B6F"/>
<path d="M43.8184 41.5604C46.1652 41.5604 48.5251 41.5736 50.872 41.5473C50.9637 41.5473 51.226 41.5736 51.5144 41.7312C52.0126 41.9939 52.4321 42.5851 52.4715 43.2813C52.4977 44.0563 52.0388 44.7 51.5144 44.989C51.2522 45.1335 51.0162 45.1597 50.9375 45.1597C48.2367 45.1466 45.5359 45.1597 42.835 45.1729C40.816 45.1729 38.7838 45.1466 36.7647 45.1729C36.6599 45.1729 36.3714 45.1597 36.0699 44.9758C35.5323 44.6606 35.257 44.0038 35.2308 43.452C35.1914 42.7952 35.4799 42.0465 36.0568 41.7181C36.319 41.5736 36.555 41.5473 36.6468 41.5473C39.0198 41.5736 41.4191 41.5604 43.8184 41.5604Z" fill="#142B6F"/>
</svg>
