<svg width="20" height="21" viewBox="0 0 20 21" fill="none" xmlns="http://www.w3.org/2000/svg">
<path d="M0 9.38019C0.0852389 8.76887 0.103184 8.14857 0.246744 7.55074C1.15297 3.81993 3.43199 1.34321 7.12417 0.349824C10.3767 -0.522197 13.3242 0.250935 15.8499 2.50291C17.4201 3.90084 18.3712 5.65836 18.7884 7.71705C18.941 8.4767 18.9679 9.24084 18.941 10.014C18.941 10.0634 18.9544 10.1263 18.8961 10.1533C18.8378 10.1848 18.7974 10.1353 18.7615 10.1039C18.4654 9.85216 18.1604 9.61392 17.8194 9.42064C17.7207 9.36221 17.7117 9.26781 17.7073 9.16892C17.6624 7.88337 17.3439 6.66973 16.7113 5.55498C15.4103 3.26705 13.4722 1.84215 10.8702 1.38366C9.04429 1.06003 7.28119 1.32972 5.65717 2.22422C3.30637 3.51877 1.84834 5.49205 1.39971 8.15306C1.00043 10.5219 1.55673 12.6885 3.03719 14.5764C4.3741 16.2844 6.1372 17.3228 8.29957 17.6419C8.47454 17.6689 8.65399 17.7138 8.82895 17.7093C9.04878 17.7048 9.16542 17.8082 9.25963 17.9925C9.3987 18.2667 9.58713 18.5094 9.77106 18.7522C9.81144 18.8016 9.88322 18.8511 9.84284 18.9275C9.81144 18.9904 9.73517 18.9634 9.67685 18.9634C7.19147 18.9904 5.01563 18.1858 3.16281 16.5182C1.62402 15.1337 0.663966 13.4167 0.233285 11.3984C0.112156 10.8231 0.0852389 10.2387 0 9.66337C0 9.56897 0 9.47458 0 9.38019Z" fill="#142B6F"/>
<path d="M14.5534 20.2534C13.7773 20.1185 12.9922 19.9972 12.2878 19.6241C10.6458 18.7566 9.64093 17.4216 9.38521 15.5741C9.04874 13.1514 10.3094 10.8904 12.548 9.92847C15.0828 8.8362 18.0123 9.8206 19.3761 12.3333C19.7978 13.1109 20.0087 13.9515 19.9997 14.828C19.9862 17.1024 18.6404 19.0128 16.5946 19.8219C16.0518 20.0376 15.4775 20.1095 14.9123 20.2444C14.7956 20.2444 14.6745 20.2489 14.5534 20.2534ZM14.661 10.6612C12.4089 10.6971 10.5157 12.4187 10.5023 14.828C10.4933 17.1474 12.3102 19.0038 14.6655 18.9993C17.0029 18.9948 18.8153 17.1474 18.8108 14.8325C18.8153 12.4771 16.958 10.6971 14.661 10.6612Z" fill="#142B6F"/>
<path d="M10.121 6.26962C10.121 7.24503 10.121 8.22043 10.121 9.20033C10.121 9.71276 9.70822 10.1263 9.19678 10.1263C7.5593 10.1263 5.92182 10.1263 4.28434 10.1263C3.99722 10.1263 3.7729 10.0319 3.64729 9.7667C3.44989 9.35765 3.74599 8.90366 4.22602 8.89467C4.80026 8.88568 5.3745 8.89018 5.94874 8.89018C6.83702 8.89018 7.72081 8.88119 8.60908 8.89467C8.8334 8.89917 8.90069 8.83624 8.90069 8.607C8.89172 6.78654 8.8962 4.96159 8.8962 3.14113C8.8962 3.04674 8.89172 2.94335 8.91415 2.85346C8.97696 2.58825 9.21473 2.39947 9.47942 2.39048C9.74411 2.38149 9.99085 2.55229 10.0806 2.80851C10.1254 2.92987 10.1254 3.05573 10.1254 3.18608C10.121 4.20644 10.121 5.24028 10.121 6.26962Z" fill="#142B6F"/>
<path d="M14.7283 14.2212C15.5313 14.2212 16.3388 14.2257 17.1419 14.2167C17.1733 14.2167 17.263 14.2257 17.3617 14.2796C17.5322 14.3695 17.6758 14.5718 17.6892 14.81C17.6982 15.0752 17.5412 15.2955 17.3617 15.3944C17.272 15.4438 17.1912 15.4528 17.1643 15.4528C16.2402 15.4483 15.316 15.4528 14.3918 15.4573C13.7009 15.4573 13.0056 15.4483 12.3147 15.4573C12.2788 15.4573 12.1801 15.4528 12.0769 15.3899C11.893 15.282 11.7988 15.0572 11.7898 14.8684C11.7763 14.6437 11.875 14.3875 12.0724 14.2751C12.1621 14.2257 12.2429 14.2167 12.2743 14.2167C13.0863 14.2257 13.9073 14.2212 14.7283 14.2212Z" fill="#142B6F"/>
<path d="M14.0045 14.9613C14.0045 14.1583 14.009 13.3507 14 12.5477C14 12.5163 14.009 12.4266 14.0629 12.3279C14.1528 12.1574 14.3551 12.0138 14.5933 12.0004C14.8585 11.9914 15.0788 12.1484 15.1777 12.3279C15.2271 12.4176 15.2361 12.4983 15.2361 12.5253C15.2316 13.4494 15.2361 14.3736 15.2406 15.2978C15.2406 15.9886 15.2316 16.684 15.2406 17.3749C15.2406 17.4108 15.2361 17.5095 15.1732 17.6127C15.0653 17.7966 14.8406 17.8908 14.6518 17.8998C14.427 17.9132 14.1708 17.8145 14.0584 17.6172C14.009 17.5274 14 17.4467 14 17.4153C14.009 16.6033 14.0045 15.7823 14.0045 14.9613Z" fill="#142B6F"/>
</svg>
