<svg width="78" height="62" viewBox="0 0 78 62" fill="none" xmlns="http://www.w3.org/2000/svg">
<path d="M31.0376 61.7501C22.109 61.7501 13.1449 61.7501 4.2163 61.7501C1.41724 61.7501 0.0354311 60.3411 0 57.5937C0 56.3256 0 55.128 0.992071 54.1418C1.77156 53.3316 2.72819 52.9442 3.86199 52.9794C4.99579 53.0146 4.99579 52.9794 4.99579 51.817C4.99579 50.9716 4.99579 50.1263 4.99579 49.2809C5.03122 47.1675 6.05872 45.6529 7.972 44.7723C8.57433 44.4905 8.75148 44.1735 8.71605 43.5747C8.68062 42.9759 8.71605 42.4123 8.71605 41.8135C8.75148 39.7705 10.275 38.2559 12.33 38.2207C12.8969 38.2207 13.4638 38.1855 13.9953 38.2207C14.6685 38.2559 14.9519 38.0446 14.9165 37.3401C14.8811 36.072 14.8811 34.804 14.9165 33.5712C14.9165 32.5145 15.3417 32.0918 16.44 32.0918C26.219 32.0918 35.998 32.0918 45.7416 32.0918C46.8754 32.0918 47.2651 32.5144 47.2651 33.6768C47.2651 34.9449 47.3005 36.2129 47.2651 37.4458C47.2651 38.0798 47.4777 38.2911 48.08 38.2559C48.6823 38.2207 49.2492 38.2207 49.8516 38.2559C51.8711 38.3263 53.3592 39.8057 53.4655 41.7783C53.4655 41.9192 53.501 42.0601 53.4655 42.2009C53.2884 43.6099 53.5718 44.5962 55.0599 45.3359C56.5126 46.0403 57.1504 47.5197 57.1858 49.1752C57.2212 50.1263 57.2567 51.0421 57.1858 51.9931C57.1149 52.8737 57.4693 53.0851 58.2842 53.0498C60.2329 53.0146 61.6147 54.0361 62.0399 55.762C62.2879 56.854 62.3233 57.9811 62.0399 59.0731C61.6147 60.8343 60.2329 61.7853 58.2842 61.7853C49.1784 61.7501 40.108 61.7501 31.0376 61.7501ZM11.586 52.9794C12.4363 52.9794 13.2867 52.9794 14.137 52.9794C14.6685 52.9794 14.8811 52.8033 14.8811 52.2749C14.8456 50.7251 14.8811 49.1752 14.8811 47.6254C14.8811 47.1323 14.6685 46.9561 14.2079 46.9561C12.8615 46.9561 11.4797 46.9209 10.1333 46.9914C8.64519 47.0618 7.68855 48.0481 7.58226 49.5275C7.54683 50.1263 7.54683 50.7603 7.58226 51.3591C7.61769 52.451 8.11372 52.9794 9.21209 53.0146C9.99157 52.9794 10.8065 52.9794 11.586 52.9794ZM50.5248 52.9794C51.3751 52.9794 52.2254 52.9794 53.0758 52.9794C53.8553 52.9794 54.4222 52.5567 54.493 51.817C54.5993 50.9012 54.6348 49.9501 54.4576 49.0343C54.2096 47.8367 53.2884 47.0618 52.0129 46.9914C50.6665 46.9561 49.3201 46.9914 47.9383 46.9561C47.4068 46.9561 47.2297 47.1675 47.2297 47.6958C47.2651 49.2105 47.2651 50.7251 47.2297 52.2749C47.2297 52.8737 47.4777 53.0498 48.0446 53.0146C48.8949 52.9442 49.7098 52.9794 50.5248 52.9794ZM34.6871 44.3848C34.6871 42.4827 32.9509 40.792 31.0376 40.792C29.2661 40.792 27.4237 42.6236 27.4237 44.3848C27.4591 46.2869 29.1244 48.0128 31.0376 48.0128C32.9509 48.0128 34.6871 46.2517 34.6871 44.3848ZM14.8811 42.5884C14.8456 40.5102 15.1291 40.792 13.1095 40.792C11.7631 40.792 11.2671 41.2851 11.3025 42.5884C11.338 44.6314 11.0545 44.3496 13.0741 44.3496C15.1291 44.3496 14.8811 44.5962 14.8811 42.5884ZM49.0366 44.3496C51.0917 44.3144 50.8436 44.6314 50.8436 42.6236C50.8436 41.2851 50.383 40.792 49.0366 40.792C46.9462 40.792 47.2651 40.5454 47.2651 42.5532C47.2651 44.5962 46.9816 44.3144 49.0366 44.3496Z" fill="#142B6F"/>
<path d="M21.0815 18.5659C20.7981 13.1767 25.6875 8.45673 31.3565 8.52718C35.998 8.59762 41.2418 12.8597 41.1001 18.6011C40.9584 24.1665 36.6712 28.4638 31.0376 28.4638C25.4395 28.4285 21.0815 24.096 21.0815 18.5659Z" fill="#142B6F"/>
<path d="M65.831 21.102C60.9769 20.8907 57.3629 18.6011 55.4497 14.163C53.6072 9.86567 54.4576 5.81496 57.5755 2.32782C58.3196 1.48245 59.2408 0.848423 60.2329 0.320069C60.8352 0.00305585 61.4729 -0.173062 62.0753 0.249621C62.713 0.707529 62.6422 1.30633 62.5004 2.0108C61.4021 7.47047 65.6184 12.4722 71.1811 12.3313C72.3857 12.2961 73.5195 12.0143 74.6179 11.5212C75.2911 11.2394 75.9643 11.0281 76.602 11.5916C77.2044 12.1552 77.0272 12.8245 76.8146 13.4937C75.4682 17.5797 71.0748 21.2781 65.831 21.102Z" fill="#142B6F"/>
</svg>
