<svg width="35" height="33" viewBox="0 0 35 33" fill="none" xmlns="http://www.w3.org/2000/svg">
<path d="M4.56522 4.71429V0H7.6087V4.71429H12.1739V7.85714H7.6087V12.5714H4.56522V7.85714H0V4.71429H4.56522ZM9.13043 14.1429V9.42857H13.6957V4.71429H24.3478L27.1326 7.85714H31.9565C33.6304 7.85714 35 9.27143 35 11V29.8571C35 31.5857 33.6304 33 31.9565 33H7.6087C5.93478 33 4.56522 31.5857 4.56522 29.8571V14.1429H9.13043ZM19.7826 28.2857C23.9826 28.2857 27.3913 24.7657 27.3913 20.4286C27.3913 16.0914 23.9826 12.5714 19.7826 12.5714C15.5826 12.5714 12.1739 16.0914 12.1739 20.4286C12.1739 24.7657 15.5826 28.2857 19.7826 28.2857ZM14.913 20.4286C14.913 23.21 17.0891 25.4571 19.7826 25.4571C22.4761 25.4571 24.6522 23.21 24.6522 20.4286C24.6522 17.6471 22.4761 15.4 19.7826 15.4C17.0891 15.4 14.913 17.6471 14.913 20.4286Z" fill="#ADB4BB"/>
</svg>
