<svg width="25" height="25" viewBox="0 0 25 25" fill="none" xmlns="http://www.w3.org/2000/svg">
<g clip-path="url(#clip0)">
<path d="M15.1559 3.3399C15.1582 4.46642 14.5088 5.49245 13.4898 5.97238H10.9906C9.86464 5.43773 9.20318 4.24676 9.34428 3.00831C9.48538 1.77006 10.3982 0.758329 11.6152 0.490809C11.8208 0.447144 12.0302 0.424835 12.2401 0.424072C13.0135 0.424072 13.755 0.731443 14.3019 1.27811C14.8487 1.82497 15.1559 2.56671 15.1559 3.3399Z" fill="#A4C2F7"/>
<path d="M13.9062 3.33994C13.9087 4.46646 13.2593 5.49249 12.2401 5.97242H10.9906C9.86464 5.43776 9.20318 4.2468 9.34428 3.00835C9.48538 1.7701 10.3982 0.758364 11.6152 0.490845C12.9534 0.784487 13.9068 1.96992 13.9062 3.33994Z" fill="#E3E7F2"/>
<path d="M20.9873 11.7415V18.3353C20.9873 18.3353 20.9873 20.5805 19.567 21.8801C19.4062 22.0344 19.317 22.2487 19.3212 22.4716V23.7503C19.3198 24.2098 18.9476 24.582 18.4881 24.5834H11.8236C11.364 24.582 10.9918 24.2098 10.9905 23.7503V23.5962C10.9913 22.9285 10.7224 22.2886 10.2448 21.8218C9.44088 21.0387 8.19957 19.6849 7.65805 18.3353C6.82498 16.2527 5.15885 13.3369 4.32578 12.5038C3.49271 11.6707 4.32578 10.8377 5.15885 10.8377C5.99192 10.8377 7.65805 12.5038 8.49112 13.7535C8.75616 14.1554 9.06658 14.5259 9.4159 14.8573C9.62317 15.0501 9.91452 15.1239 10.1885 15.0529C10.4627 14.9822 10.6818 14.7765 10.7697 14.5074C10.9283 13.9937 11.0029 13.4577 10.9905 12.9202V3.33986C10.9878 2.81035 11.3229 2.33805 11.8236 2.16529C11.9565 2.11476 12.0978 2.0894 12.24 2.09036C12.9303 2.09036 13.4897 2.6498 13.4897 3.33986V8.33846C13.4872 7.80875 13.8223 7.33645 14.3228 7.1637C14.4559 7.11336 14.597 7.08781 14.7392 7.08876C15.4295 7.08876 15.9889 7.64821 15.9889 8.33846V9.58796C15.9889 9.25656 16.1209 8.9389 16.3554 8.70494C16.4858 8.57242 16.6458 8.4725 16.822 8.41339C16.9551 8.36286 17.0964 8.3375 17.2386 8.33846C17.9287 8.33846 18.4881 8.8979 18.4881 9.58796V11.6707C18.4881 11.3393 18.6201 11.0217 18.8548 10.7877C18.9852 10.6552 19.145 10.5553 19.3212 10.496C19.4836 10.4363 19.657 10.4123 19.8293 10.4252C20.4986 10.4967 21.0018 11.0686 20.9873 11.7415Z" fill="#E3E7F2"/>
<path d="M20.9874 11.7415V18.3353C20.9874 18.3353 20.9874 20.5805 19.567 21.8802C19.4063 22.0345 19.317 22.2488 19.3212 22.4717V23.7504C19.3199 24.2099 18.9477 24.5821 18.4882 24.5834H17.2386C17.6982 24.5821 18.0704 24.2099 18.0717 23.7504V22.4717C18.0675 22.2488 18.1566 22.0345 18.3175 21.8802C19.7378 20.5805 19.7378 18.3353 19.7378 18.3353V11.7415C19.7417 11.2763 19.5033 10.8427 19.1088 10.5961C19.1755 10.5544 19.2469 10.5208 19.3212 10.496C19.4837 10.4364 19.657 10.4123 19.8294 10.4253C20.4986 10.4968 21.0018 11.0686 20.9874 11.7415Z" fill="#A4C2F7"/>
<path d="M9.34939 14.7948C9.20391 14.9648 8.99493 15.068 8.77126 15.0798C8.5476 15.0916 8.32889 15.0112 8.16644 14.8573C7.81693 14.5259 7.50669 14.1554 7.24165 13.7535C6.57524 12.7496 5.36711 11.4791 4.48828 11.0167C4.69307 10.9013 4.92379 10.8397 5.15889 10.8376C5.99196 10.8376 7.65809 12.5038 8.49116 13.7535C8.74056 14.1293 9.0281 14.4782 9.34939 14.7948Z" fill="#A4C2F7"/>
<path d="M9.32447 3.3399C9.32199 4.46642 9.97144 5.49245 10.9906 5.97238V12.9203C11.003 13.4578 10.9284 13.9938 10.7698 14.5075C10.7324 14.6125 10.6743 14.7092 10.599 14.7914C10.6215 14.8131 10.6443 14.8373 10.6657 14.8573C10.873 15.0501 11.1643 15.1239 11.4383 15.053C11.7125 14.9822 11.9314 14.7765 12.0193 14.5075C12.178 13.9938 12.2525 13.4578 12.2401 12.9203V5.97238C11.1153 5.43792 10.4542 4.2479 10.5946 3.01041C10.7349 1.77292 11.6456 0.761189 12.8617 0.492144C12.6575 0.447144 12.4491 0.424454 12.2401 0.424072C12.0302 0.424835 11.8208 0.447144 11.6153 0.490809C10.2773 0.784451 9.3239 1.96989 9.32447 3.3399Z" fill="white"/>
<path d="M4.326 12.5038C5.15906 13.3368 6.8252 16.2527 7.65826 18.3352C8.19978 19.6849 9.44109 21.0387 10.245 21.8218C10.7226 22.2885 10.9915 22.9285 10.9907 23.5962V23.7503C10.9921 24.2098 11.3643 24.582 11.8238 24.5833H13.0733C12.6138 24.582 12.2416 24.2098 12.2402 23.7503V23.5962C12.2412 22.9285 11.9723 22.2885 11.4947 21.8218C10.6908 21.0387 9.44948 19.6849 8.90796 18.3352C8.07489 16.2527 6.40876 13.3368 5.57569 12.5038C5.33105 12.3192 5.20197 12.0193 5.2361 11.7146C5.27023 11.4101 5.46281 11.1462 5.74234 11.0205C5.56482 10.9149 5.36499 10.8523 5.15906 10.8376C5.10339 10.8378 5.04771 10.8417 4.99241 10.8493C4.9762 10.8514 4.96038 10.8552 4.94417 10.858C4.90585 10.8643 4.86752 10.8714 4.82957 10.8813C4.80669 10.8872 4.78457 10.8947 4.76208 10.9017C4.73958 10.9088 4.70583 10.9193 4.67875 10.9301C4.65167 10.941 4.61602 10.9559 4.58513 10.9717C4.57216 10.9776 4.55977 10.9833 4.54718 10.99C4.52811 10.9997 4.50771 11.0075 4.48884 11.018L4.49341 11.0209C4.21407 11.1465 4.02149 11.4102 3.98717 11.7146C3.95284 12.0191 4.08155 12.319 4.326 12.5038Z" fill="white"/>
<path d="M4.62051 12.2091C4.94409 12.5622 5.23678 12.9424 5.49514 13.3455C5.75218 13.7299 5.99052 14.1216 6.22124 14.5169C6.68268 15.3082 7.10674 16.1159 7.50087 16.9427C7.69193 17.3494 7.87574 17.7609 8.0443 18.1807L7.2713 18.4898C7.10884 18.0903 6.93304 17.693 6.7477 17.2988C6.36539 16.4963 5.9501 15.7048 5.50144 14.9367C5.27777 14.5527 5.0461 14.1727 4.80165 13.8076C4.57303 13.4504 4.31524 13.1129 4.03113 12.7981L4.62051 12.2091Z" fill="white"/>
<path d="M6.53344 15.0672C6.47776 14.9707 6.38776 14.899 6.28155 14.8659L6.2028 14.8527C6.17496 14.8504 6.14693 14.852 6.11948 14.8573C6.09297 14.8584 6.06685 14.8638 6.04187 14.8725C6.01594 14.8825 5.99039 14.8937 5.96579 14.9067C5.87122 14.9627 5.80086 15.0518 5.76825 15.1567C5.75471 15.2095 5.75128 15.2644 5.75833 15.3183C5.7795 15.4827 5.89448 15.6196 6.05274 15.669C6.10556 15.6829 6.16066 15.6865 6.21482 15.6799C6.26916 15.6749 6.32198 15.6593 6.37022 15.6341C6.46861 15.5819 6.54164 15.4919 6.57272 15.3847C6.60361 15.2777 6.58969 15.1626 6.53439 15.0659L6.53344 15.0672Z" fill="#142B6F"/>
<path d="M3.65401 11.346C3.46086 11.8612 3.61168 12.4424 4.03136 12.7984C4.38087 13.1912 4.69473 13.6143 4.9693 14.0626C5.094 14.2531 5.34741 14.3097 5.54133 14.1905C5.63553 14.1314 5.70226 14.0372 5.72648 13.9287C5.75089 13.8203 5.73087 13.7064 5.6708 13.6128C5.36477 13.1136 5.01316 12.6438 4.62036 12.2094C4.42206 12.0113 4.3557 11.8279 4.4232 11.6646C4.57422 11.403 4.8568 11.2454 5.15884 11.2543C5.72495 11.2543 7.2599 12.6577 8.14464 13.9848C8.42703 14.4131 8.75729 14.8078 9.12892 15.1615C9.35773 15.3777 9.66052 15.4984 9.97533 15.4986C10.5153 15.4976 10.9941 15.1517 11.165 14.6396C11.3373 14.0832 11.4191 13.5028 11.4069 12.9204V3.34008C11.4069 2.87998 11.7799 2.50701 12.24 2.50701C12.7001 2.50701 13.0731 2.87998 13.0731 3.34008V12.0874C13.0731 12.3175 13.2595 12.504 13.4897 12.504C13.7196 12.504 13.9061 12.3175 13.9061 12.0874V8.33867C13.9061 7.87857 14.2793 7.50561 14.7392 7.50561C15.1993 7.50561 15.5725 7.87857 15.5725 8.33867V12.0874C15.5725 12.3175 15.7589 12.504 15.9889 12.504C16.219 12.504 16.4055 12.3175 16.4055 12.0874V9.58818C16.4055 9.12808 16.7785 8.75511 17.2386 8.75511C17.6987 8.75511 18.0717 9.12808 18.0717 9.58818V12.504C18.0717 12.734 18.2581 12.9204 18.4881 12.9204C18.7182 12.9204 18.9047 12.734 18.9047 12.504V11.6709C18.9042 11.4499 18.9922 11.2379 19.1492 11.0823C19.321 10.912 19.5576 10.8238 19.799 10.84C20.249 10.8987 20.5819 11.2877 20.5709 11.7413V18.3355C20.5709 18.3559 20.5497 20.4182 19.2863 21.573C19.0393 21.8058 18.9009 22.1315 18.9047 22.4709V23.7505C18.9047 23.9807 18.7182 24.1671 18.4881 24.1671H11.8236C11.5934 24.1671 11.4069 23.9807 11.4069 23.7505V23.5982C11.4075 22.8173 11.0938 22.0691 10.5369 21.5221C9.83118 20.837 8.56909 19.491 8.04511 18.1806C7.87464 17.761 7.69331 17.3485 7.50149 16.9435L7.31787 16.5631C7.26886 16.4634 7.1823 16.3875 7.07704 16.3521C6.97179 16.3164 6.85681 16.3244 6.75747 16.374C6.5544 16.4775 6.47088 16.7243 6.56965 16.9298L6.74832 17.2995C6.93384 17.6937 7.10946 18.091 7.27153 18.4901C7.82392 19.8704 9.03682 21.2256 9.95703 22.1195C10.3531 22.5094 10.5754 23.0423 10.5739 23.5982V23.7505C10.5739 24.4408 11.1333 25.0002 11.8236 25.0002H18.4881C19.1783 25.0002 19.7378 24.4408 19.7378 23.7505V22.4709C19.734 22.3651 19.7742 22.2623 19.849 22.1873C21.3864 20.7815 21.4039 18.4346 21.4039 18.3355V11.7413C21.4194 10.8493 20.7469 10.0952 19.8591 10.009C19.5254 9.98707 19.1928 10.0662 18.9047 10.2359V9.58818C18.9082 8.98793 18.5867 8.43287 18.0642 8.13713C17.542 7.84139 16.9005 7.8513 16.3876 8.16325C16.3342 7.60133 15.9967 7.10595 15.4935 6.85063C14.9901 6.59532 14.3912 6.61534 13.9061 6.90402V6.21415C14.94 5.62744 15.5768 4.52876 15.5725 3.34008C15.5725 1.49967 14.0804 0.0078125 12.24 0.0078125C10.3996 0.0078125 8.90773 1.49967 8.90773 3.34008C8.90335 4.52876 9.54021 5.62744 10.5739 6.21415V12.9204C10.5857 13.4122 10.5188 13.9024 10.3756 14.373C10.3309 14.512 10.2171 14.618 10.0752 14.6529C9.94177 14.6867 9.80029 14.6495 9.70037 14.5545C9.37508 14.2443 9.08601 13.898 8.83909 13.5224C8.11623 12.4411 6.29737 10.4212 5.15884 10.4212C4.51931 10.4079 3.93107 10.7694 3.65401 11.346ZM9.7408 3.34008C9.7408 1.95977 10.8597 0.84088 12.24 0.84088C13.6203 0.84088 14.7392 1.95977 14.7392 3.34008C14.7432 4.05283 14.4396 4.73259 13.9061 5.20547V3.34008C13.9061 2.41987 13.1602 1.67395 12.24 1.67395C11.3198 1.67395 10.5739 2.41987 10.5739 3.34008V5.20547C10.0405 4.73259 9.73679 4.05283 9.7408 3.34008Z" fill="#142B6F"/>
<path d="M19.7378 17.5022V15.003C19.7378 14.773 19.5514 14.5865 19.3212 14.5865C19.0913 14.5865 18.9048 14.773 18.9048 15.003V17.5022C18.9048 17.7323 19.0913 17.9188 19.3212 17.9188C19.5514 17.9188 19.7378 17.7323 19.7378 17.5022Z" fill="#142B6F"/>
<path d="M18.6101 19.707C18.5018 19.8116 18.4585 19.9665 18.4966 20.1121C18.5348 20.2576 18.6484 20.3715 18.7941 20.4096C18.9398 20.4477 19.0946 20.4043 19.1991 20.296C19.516 20.0027 19.7088 19.5992 19.7378 19.1683C19.7374 18.9433 19.5562 18.7604 19.3312 18.7578C19.1038 18.7534 18.9144 18.9315 18.9047 19.1588C18.8734 19.3702 18.7693 19.5641 18.6101 19.707Z" fill="#142B6F"/>
<path d="M13.0732 23.3338C13.3033 23.3338 13.4898 23.1473 13.4898 22.9172C13.4898 22.6872 13.3033 22.5007 13.0732 22.5007H12.6567C12.4266 22.5007 12.2401 22.6872 12.2401 22.9172C12.2401 23.1473 12.4266 23.3338 12.6567 23.3338H13.0732Z" fill="#142B6F"/>
<path d="M17.655 23.3338C17.8852 23.3338 18.0717 23.1473 18.0717 22.9172C18.0717 22.6872 17.8852 22.5007 17.655 22.5007H14.7392C14.5092 22.5007 14.3228 22.6872 14.3228 22.9172C14.3228 23.1473 14.5092 23.3338 14.7392 23.3338H17.655Z" fill="#142B6F"/>
<path d="M8.90767 6.89674C9.07394 6.89674 9.2242 6.79816 9.29017 6.64562C9.35615 6.49308 9.32526 6.31594 9.21142 6.19486C7.76819 4.66945 7.68982 2.30715 9.02894 0.689451C9.12791 0.575236 9.15727 0.416402 9.10579 0.274348C9.05411 0.132294 8.9296 0.0293281 8.7803 0.00530287C8.631 -0.0187224 8.48056 0.040006 8.38694 0.158798C6.78067 2.09989 6.87372 4.93411 8.60412 6.76556C8.68287 6.84927 8.7927 6.89674 8.90767 6.89674Z" fill="#142B6F"/>
<path d="M16.1278 5.7933C16.226 5.84364 16.3404 5.85298 16.4455 5.81904C16.5507 5.7851 16.6381 5.71092 16.6884 5.61253C17.5991 3.83924 17.3649 1.69375 16.0931 0.158798C15.9997 0.040006 15.849 -0.0187224 15.6997 0.00530287C15.5506 0.0293281 15.4261 0.132294 15.3745 0.274348C15.3228 0.416402 15.3521 0.575236 15.4513 0.689451C16.5111 1.96813 16.7061 3.75553 15.9474 5.23271C15.8424 5.4373 15.9232 5.68823 16.1278 5.7933Z" fill="#142B6F"/>
</g>
<defs>
<clipPath id="clip0">
<rect width="25" height="25" fill="white"/>
</clipPath>
</defs>
</svg>
