<svg width="64" height="64" viewBox="0 0 64 64" fill="none" xmlns="http://www.w3.org/2000/svg">
<path fill-rule="evenodd" clip-rule="evenodd" d="M52.4709 50.9359C53.196 49.7701 48.9464 45.0415 39.7222 36.75L25.4634 50.9359L52.4709 51" fill="white" fill-opacity="0.35"/>
<path fill-rule="evenodd" clip-rule="evenodd" d="M15.3396 43.5187L7.69043 51.0001H17.9121L35.8026 33.5311C33.2967 31.3786 29.8387 31.3786 25.4286 33.5311" fill="white" fill-opacity="0.35"/>
<path fill-rule="evenodd" clip-rule="evenodd" d="M12.2902 12.8969C11.5649 14.0549 16.485 17.975 27.0507 24.6572L39.3057 12.8969L12.2902 12.8332" fill="white" fill-opacity="0.35"/>
<path fill-rule="evenodd" clip-rule="evenodd" d="M49.4945 20.0569L56.9993 12.9167H46.5186L30.6581 26.9159C33.815 29.3325 37.5977 29.5275 42.0065 27.501C46.4153 25.4745 48.9113 22.9931 49.4945 20.0569Z" fill="white" fill-opacity="0.35"/>
<path fill-rule="evenodd" clip-rule="evenodd" d="M18.0277 50.8444H7.79565L46.2639 13.2554H56.4959L18.0277 50.8444ZM0 0V0.0997771C0 7.36604 6.02811 13.2554 13.4633 13.2554H38.819L0.241492 50.8444V64H63.759C63.759 56.7347 57.7309 50.8444 50.2952 50.8444H25.4772L63.9449 13.2554H64V0H0Z" fill="white"/>
</svg>
